<svg id="Layer_1" data-name="Layer 1" xmlns="http://www.w3.org/2000/svg" viewBox="0 0 324 45.18"><defs><style>.cls-1{fill:#ffffff;}.cls-2{fill:#ffffff;}</style></defs><title>Artboard 2</title><path class="cls-1" d="M5.51,29.13A18.31,18.31,0,0,1,22.63,4.3a17.36,17.36,0,0,1,2.59.19L23.15,6.55h-.56a16.07,16.07,0,0,0-16,16.05A16.4,16.4,0,0,0,7.14,27H21.19L15.32,38,29.51,23.68H10.21L31.89,2A22.58,22.58,0,0,0,10.81,41.86l6.75-12.72Z"/><path class="cls-1" d="M34.37,3.32,27.62,16h12A18.27,18.27,0,0,1,19.92,40.68l2-2.06h.63a16.06,16.06,0,0,0,16.05-16A18.2,18.2,0,0,0,38,18.22H24L29.86,7.16,15.45,21.5H34.8L13.29,43.17A22.58,22.58,0,0,0,34.37,3.32Z"/><path class="cls-2" d="M56.37,36.54l1.94-2.84a1,1,0,0,1,1.55-.2A9.14,9.14,0,0,0,66,36.09a4.36,4.36,0,0,0,4.43-4.24c0-2.19-1.49-3.63-4.28-5.48-3.29-2.14-7.18-5-7.18-10S62.45,6,70.27,6a13.71,13.71,0,0,1,8.87,3.24,1.42,1.42,0,0,1,.15,2L77.35,14c-.4.59-1,.64-1.75.1A8.21,8.21,0,0,0,70,11.92a4.07,4.07,0,0,0-4.23,3.89c0,2,1.34,3,4.33,5,3.29,2.19,7.68,4.94,7.68,10.42,0,5.83-4.54,10.71-11.91,10.71A13.88,13.88,0,0,1,56.37,38C56.07,37.73,55.82,37.29,56.37,36.54Z"/><path class="cls-2" d="M80.89,40.13,99.62,6.59a.92.92,0,0,1,.85-.55h.45a.75.75,0,0,1,.7.55l9.16,33.54a1,1,0,0,1-.94,1.29H105.5a1.11,1.11,0,0,1-1.29-1L103,34.89H90.55l-2.89,5.53a1.76,1.76,0,0,1-1.59,1H81.49C80.79,41.42,80.54,40.77,80.89,40.13Zm20.48-10.62L99,18.65h-.1L93.49,29.51Z"/><path class="cls-2" d="M120.35,7.49a1.11,1.11,0,0,1,1-1h4.93a.8.8,0,0,1,.75,1l-3,21a8.71,8.71,0,0,0-.1,1.59c0,3.29,1.7,5.28,5.08,5.28,4.09,0,6.38-2.64,7-6.82l3-21a1.07,1.07,0,0,1,1-1h4.93a.83.83,0,0,1,.75,1l-3,21.32c-1,7.58-6.33,13.11-14.1,13.11-6.68,0-11.37-4.58-11.37-11.11a14,14,0,0,1,.15-2Z"/><path class="cls-2" d="M169.69,6a13.39,13.39,0,0,1,10.36,4.74,1,1,0,0,1-.2,1.39l-2.69,2.59a1.12,1.12,0,0,1-1.64,0,9,9,0,0,0-6.18-2.49c-6,0-11.16,6.18-11.16,13.31,0,5.28,2.84,9.81,7.62,9.81a10.29,10.29,0,0,0,6.83-2.94,1,1,0,0,1,1.59,0l2.59,3.24a1.17,1.17,0,0,1-.25,1.35,15.93,15.93,0,0,1-11.26,4.83c-8.62,0-14.2-6.93-14.2-15.5C151.1,14.71,159.37,6,169.69,6Z"/><path class="cls-2" d="M189.42,7.49a1.06,1.06,0,0,1,1-1H208.8a.8.8,0,0,1,.75,1l-.6,4.08a1.07,1.07,0,0,1-1,.95H195.2l-1.15,8.17h10.57a.82.82,0,0,1,.74.95l-.59,4.14a1.11,1.11,0,0,1-1,.94H193.21L192,35.44h12.81c.5,0,.74.45.69,1l-.54,4.08a1.07,1.07,0,0,1-1,1H185.48a.74.74,0,0,1-.69-1Z"/><path class="cls-1" d="M221.41,7.49a1.11,1.11,0,0,1,1-1h2.14a.83.83,0,0,1,.75,1L221,38.08h12.71a.79.79,0,0,1,.7,1l-.2,1.44a1.11,1.11,0,0,1-1,1H217.52a.8.8,0,0,1-.74-1Z"/><path class="cls-1" d="M238.46,40.13,256.84,6.59a1,1,0,0,1,.85-.55h.45a.73.73,0,0,1,.69.55l8.87,33.54a1,1,0,0,1-.94,1.29h-2.1a.73.73,0,0,1-.74-.55l-2-8.22H246.38l-4.24,8.22a1.08,1.08,0,0,1-.94.55h-2.15C238.36,41.42,238.11,40.77,238.46,40.13ZM261,29.56,257,13.22h-.3l-8.52,16.34Z"/><path class="cls-1" d="M291.82,23.88a7.54,7.54,0,0,1,4.24,6.78c0,6.13-4.34,10.76-11.21,10.76H274.53a.79.79,0,0,1-.74-1l4.63-33a1.11,1.11,0,0,1,1-1h9.91a7.69,7.69,0,0,1,8,7.92,10,10,0,0,1-5.53,9.27Zm-6.28,14.2c3.44,0,6.33-3.19,6.33-7.07a5.22,5.22,0,0,0-5.33-5.38h-7l-1.75,12.45ZM287,22.19c3.69,0,6.08-2.94,6.08-7.33,0-2.89-1.5-4.88-4.39-4.88h-6.87l-1.75,12.21Z"/><path class="cls-1" d="M302.19,36.19l.8-.85c.59-.6,1-.79,1.59-.25,1.5,1.35,3.19,3.49,7.38,3.49a6,6,0,0,0,6.27-6c0-3.14-2.34-5-6.47-7.37s-6.68-4.49-6.68-9.07c0-4.19,2.64-10.07,10.81-10.07a12.85,12.85,0,0,1,7.73,2.54c.24.2.69.75.05,1.7l-.55.8c-.5.69-1,.89-1.65.44a10.19,10.19,0,0,0-5.93-2.14,6.46,6.46,0,0,0-6.67,6.28c0,2.79,1.89,4.63,5,6.33,4.78,2.59,8.42,5,8.42,10.16,0,5.53-4,9.77-10.91,9.77a12.67,12.67,0,0,1-9.32-4.29C301.74,37.29,301.54,36.84,302.19,36.19Z"/></svg>